# AST/ASF file generated using VICON BodyLanguage
# -----------------------------------------------
:version 1.10
:name VICON
:units
  mass 1.0
  length 0.45
  angle deg
:documentation
   .ast/.asf automatically generated from VICON data using
   VICON BodyBuilder and BodyLanguage model FoxedUp or BRILLIANT.MOD
:root
   order TX TY TZ RX RY RZ
   axis XYZ
   position 0 0 0  
   orientation 0 0 0 
:bonedata
  begin
     id 1 
     name lhipjoint
     direction 0.576517 -0.752066 0.319413 
     length 2.45433 
     axis 0 0 0  XYZ
  end
  begin
     id 2 
     name lfemur
     direction 0.34202 -0.939693 0  
     length 7.54459  
     axis 0 0 20  XYZ
    dof rx ry rz
    limits (-160.0 20.0)
           (-70.0 70.0)
           (-60.0 70.0)
  end
  begin
     id 3 
     name ltibia
     direction 0.34202 -0.939693 0   
     length 7.73986   
     axis 0 0 20   XYZ
    dof rx
    limits (-10.0 170.0)
  end
  begin
     id 4 
     name lfoot
     direction 0.090693 -0.249177 0.964202   
     length 2.28437   
     axis -90 7.62852e-016 20   XYZ
    dof rx rz
    limits (-45.0 90.0)
           (-70.0 20.0)
  end
  begin
     id 5 
     name ltoes
     direction 1.5356e-011 -4.21928e-011 1   
     length 1.14243   
     axis -90 7.62852e-016 20   XYZ
    dof rx
    limits (-90.0 20.0)
  end
  begin
     id 6 
     name rhipjoint
     direction -0.573937 -0.753736 0.320122   
     length 2.44889  
     axis 0 0 0  XYZ 
  end
  begin
     id 7 
     name rfemur
     direction -0.34202 -0.939693 0   
     length 7.50166   
     axis 0 0 -20   XYZ
    dof rx ry rz
    limits (-160.0 20.0)
           (-70.0 70.0)
           (-70.0 60.0)
  end
  begin
     id 8 
     name rtibia
     direction -0.34202 -0.939693 0   
     length 7.54266   
     axis 0 0 -20   XYZ
    dof rx
    limits (-10.0 170.0)
 end
 begin
     id 9 
     name rfoot
     direction -0.114017 -0.31326 0.942798   
     length 2.34212  
     axis -90 -7.62852e-016 -20   XYZ
    dof rx rz
    limits (-45.0 90.0)
           (-20.0 70.0)
  end
  begin
     id 10 
     name rtoes
     direction -1.53557e-011 -4.21867e-011 1   
     length 1.16246   
     axis -90 -7.62852e-016 -20   XYZ
    dof rx
    limits (-90.0 20.0)
  end
  begin
     id 11 
     name lowerback
     direction -0.0228371 0.999155 -0.034167   
     length 2.0537   
     axis 0 0 0   XYZ
    dof rx ry rz
    limits (-20.0 45.0)
           (-30.0 30.0)
           (-30.0 30.0)
  end
  begin
     id 12 
     name upperback
     direction 0.0198981 0.999794 0.00389455   
     length 2.05302   
     axis 0 0 0   XYZ
    dof rx ry rz
    limits (-20.0 45.0)
           (-30.0 30.0)
           (-30.0 30.0)
  end
  begin
     id 13 
     name thorax
     direction 0.0304566 0.99935 0.0192987   
     length 2.05315   
     axis 0 0 0   XYZ
    dof rx ry rz
    limits (-20.0 45.0)
           (-30.0 30.0)
           (-30.0 30.0)
  end
  begin
     id 14 
     name lowerneck
     direction -0.0196762 0.99417 0.106017   
     length 1.82056   
     axis 0 0 0   XYZ
    dof rx ry rz
    limits (-20.0 45.0)
           (-30.0 30.0)
           (-30.0 30.0)
  end
  begin
     id 15 
     name upperneck
     direction 0.00517787 0.9802 -0.197944   
     length 1.83835   
     axis 0 0 0   XYZ
    dof rx ry rz
    limits (-20.0 45.0)
           (-30.0 30.0)
           (-30.0 30.0)
  end
  begin
     id 16
     name head
     direction 0.00211419 0.996945 -0.078081  
     length 1.85629  
     axis 0 0 0   XYZ
    dof rx ry rz
    limits (-20.0 45.0)
           (-30.0 30.0)
           (-30.0 30.0)
  end
  begin
     id 17 
     name lclavicle
     direction 0.930001 0.365811 -0.0357824  
     length 3.81961  
     axis 0 0 0   XYZ
    dof ry rz
    limits (-20.0 10.0)
           (0.0 20.0)
  end
  begin
     id 18 
     name lhumerus
     direction 1 -4.48968e-011 -3.06644e-027   
     length 5.14507   
     axis 180 -30 -90   XYZ
    dof rx ry rz
    limits (-60.0 90.0)
           (-90.0 90.0)
           (-90.0 90.0)
  end
  begin
     id 19
     name lradius
     direction 1 -4.48965e-011 9.06925e-028   
     length 3.50646   
     axis 180 -30 -90   XYZ
    dof rx
    limits (-10.0 170.0)
  end
  begin
     id 20
     name lwrist
     direction 1 -4.48957e-011 1.03922e-027   
     length 1.75323   
     axis -2.56395e-016 90 90   XYZ
    dof ry
    limits (-180.0 0.0)
 end
  begin
     id 21 
     name lhand
     direction 1 -4.48967e-011 2.08017e-027   
     length 0.629969   
     axis -1.32723e-015 90 90   XYZ
    dof rx rz
    limits (-90.0 90.0)
           (-45.0 45.0)
  end
  begin
     id 22 
     name lfingers
     direction 1 -4.49089e-011 4.20095e-027   
     length 0.507897   
     axis -2.6545e-015 90 90   XYZ
    dof rx
    limits (0.0 90.0)
  end
  begin
     id 23
     name lthumb
     direction 0.707107 -6.35001e-011 0.707107   
     length 0.729241   
     axis -90 45 5.05613e-014   XYZ
    dof rx rz
    limits (-45.0 45.0)
           (-45.0 45.0)
  end
  begin
     id 24 
     name rclavicle
     direction -0.881882 0.464123 -0.0829113   
     length 3.47515  
     axis 0 0 0   XYZ 
    dof ry rz
    limits (-10.0 20.0)
           (-20.0 0.0)
  end
  begin
     id 25 
     name rhumerus
     direction -1 -4.48961e-011 -1.55672e-027  
     length 5.232   
     axis 180 30 90   XYZ
    dof rx ry rz
    limits (-90.0 60.0)
           (-90.0 90.0)
           (-90.0 90.0)
  end
  begin
     id 26 
     name rradius
     direction -1 -4.48963e-011 6.18178e-029   
     length 3.65641   
     axis 180 30 90   XYZ
    dof rx
    limits (-10.0 170.0)
  end
  begin
     id 27 
     name rwrist
     direction -1 -4.48982e-011 1.04136e-027   
     length 1.8282   
     axis -2.56395e-016 -90 -90   XYZ
    dof ry
    limits (-180.0 0.0)
  end
  begin
     id 28
     name rhand
     direction -1 -4.48929e-011 2.07378e-027   
     length 0.656807   
     axis -1.32723e-015 -90 -90   XYZ
    dof rx rz
    limits (-90.0 90.0)
           (-45.0 45.0)
  end
  begin
     id 29
     name rfingers
     direction -1 -4.489e-011 4.13816e-027   
     length 0.529535   
     axis -2.6545e-015 -90 -90   XYZ
    dof rx
    limits (0.0 90.0)
  end
  begin
     id 30
     name rthumb
     direction -0.707107 -6.34843e-011 0.707107   
     length 0.760309   
     axis -90 -45 -5.05613e-014   XYZ
    dof rx rz
    limits (-45.0 45.0)
           (-45.0 45.0)
  end
:hierarchy
  begin
    root lhipjoint rhipjoint lowerback
    lhipjoint lfemur
    lfemur ltibia
    ltibia lfoot
    lfoot ltoes
    rhipjoint rfemur
    rfemur rtibia
    rtibia rfoot
    rfoot rtoes
    lowerback upperback
    upperback thorax
    thorax lowerneck lclavicle rclavicle
    lowerneck upperneck
    upperneck head
    lclavicle lhumerus
    lhumerus lradius
    lradius lwrist
    lwrist lhand lthumb
    lhand lfingers
    rclavicle rhumerus
    rhumerus rradius
    rradius rwrist
    rwrist rhand rthumb
    rhand rfingers
  end

#!OML:ASF H:\ManfredETheater\Project 1\Capture day 1\Session 1\subject.ASF
:FULLY-SPECIFIED
:DEGREES
16
root -1.70604 15.5084 34.938 -157.532 3.46632 -187.164
lowerback 16.2253 -4.03361 -2.71501
upperback -1.19973 -5.65237 1.91928
thorax -9.94684 -2.46946 4.98524
lowerneck -16.4555 1.29049 1.1783
upperneck -2.07904 2.09115 -1.70523
head 2.19724 1.20793 -0.606549
rclavicle -3.97569e-016 -3.97569e-015
rhumerus -60.9138 -15.6897 -65.2802
rradius 52.4832
rwrist -2.1986
rhand -29.3792 -4.42134
rfingers 7.12502
rthumb -2.7179 -34.3838
lclavicle -3.97569e-016 -3.97569e-015
lhumerus -34.0287 -9.69258 95.5384
lradius 99.953
lwrist 7.57337
lhand -28.2438 0.776636
lfingers 7.12502
lthumb -1.62137 30.7502
rfemur -55.6894 -12.4751 10.6938
rtibia 100.89
rfoot -8.96682 -6.94846
rtoes 0.988694
lfemur -31.5935 -1.74779 -34.1928
ltibia 57.5548
lfoot -32.421 -11.1114
ltoes 12.3577
17
root -1.69488 15.5194 34.4051 -157.843 3.57511 -187.502
lowerback 15.8625 -4.20861 -2.97547
upperback -1.25851 -5.93767 1.90842
thorax -9.7523 -2.60417 5.15119
lowerneck -16.4575 1.50353 1.13775
upperneck -1.71662 2.35549 -1.78215
head 2.32695 1.32155 -0.605307
rclavicle -5.88403e-014 -2.34566e-014
rhumerus -63.2562 -15.5776 -62.6412
rradius 52.9602
rwrist -2.58426
rhand -29.4178 -4.35116
rfingers 7.12502
rthumb -2.75524 -34.3131
lclavicle -5.88403e-014 -2.34566e-014
lhumerus -32.4634 -10.0602 95.2307
lradius 102.856
lwrist 7.89884
lhand -28.3185 0.815744
lfingers 7.12502
lthumb -1.69352 30.7888
rfemur -59.3838 -12.1354 10.6788
rtibia 100.491
rfoot -9.74088 -7.36499
rtoes 0.263758
lfemur -28.1654 -1.64149 -34.4877
ltibia 55.375
lfoot -31.8274 -11.6175
ltoes 11.2712
18
root -1.68292 15.5422 33.8559 -158.146 3.74819 -187.794
lowerback 15.4293 -4.40185 -3.26396
upperback -1.33641 -6.24459 1.95092
thorax -9.52476 -2.74898 5.3853
lowerneck -16.457 1.77265 1.11561
upperneck -1.32548 2.69443 -1.96591
head 2.47026 1.46699 -0.636243
rclavicle 1.47101e-014 3.77691e-014
rhumerus -65.3675 -14.9752 -60.3266
rradius 53.8461
rwrist -3.77077
rhand -29.3666 -4.34832
rfingers 7.12502
rthumb -2.70577 -34.3109
lclavicle 1.47101e-014 3.77691e-014
lhumerus -31.1913 -10.4312 94.8009
lradius 105.902
lwrist 8.54468
lhand -28.5224 0.707283
lfingers 7.12502
lthumb -1.8904 30.6787
rfemur -62.7426 -11.6325 10.6873
rtibia 99.3315
rfoot -10.4162 -7.6365
rtoes -1.43322
lfemur -24.6075 -1.47675 -34.7314
ltibia 52.859
lfoot -30.7175 -12.2601
ltoes 10.0484
19
root -1.67007 15.5736 33.2923 -158.446 3.96194 -188.024
lowerback 14.9458 -4.6145 -3.53813
upperback -1.43079 -6.56607 2.04957
thorax -9.27634 -2.9022 5.6657
lowerneck -16.4535 2.08795 1.11467
upperneck -0.921602 3.09705 -2.25145
head 2.62243 1.63947 -0.69899
rclavicle 6.2816e-014 -2.3059e-014
rhumerus -67.225 -14.0049 -58.2947
rradius 55.0406
rwrist -5.44207
rhand -29.2581 -4.3252
rfingers 7.12502
rthumb -2.60093 -34.2891
lclavicle 6.2816e-014 -2.3059e-014
lhumerus -30.1693 -10.832 94.2331
lradius 109.011
lwrist 9.3834
lhand -28.7993 0.423444
lfingers 7.12502
lthumb -2.15792 30.3923
rfemur -65.6909 -11.0134 10.7306
rtibia 97.4661
rfoot -11.0268 -7.77672
rtoes -3.724
lfemur -20.9839 -1.30181 -34.8982
ltibia 50.0973
lfoot -29.0005 -13.0188
ltoes 8.56268
20
root -1.65615 15.6125 32.7158 -158.74 4.2027 -188.197
lowerback 14.4176 -4.83958 -3.78281
upperback -1.53564 -6.89081 2.19568
thorax -9.00663 -3.05949 5.97112
lowerneck -16.438 2.43332 1.13955
upperneck -0.525241 3.54319 -2.62766
head 2.77555 1.82999 -0.792467
rclavicle 2.10712e-014 4.13472e-014
rhumerus -68.8296 -12.8033 -56.4835
rradius 56.4386
rwrist -7.15591
rhand -29.1373 -4.26444
rfingers 7.12502
rthumb -2.48429 -34.2297
lclavicle 2.10712e-014 4.13472e-014
lhumerus -29.3637 -11.2732 93.5303
lradius 112.107
lwrist 10.1848
lhand -29.0543 -0.0608258
lfingers 7.12502
lthumb -2.40418 29.9054
rfemur -68.2065 -10.331 10.8094
rtibia 94.9689
rfoot -11.6011 -7.77597
rtoes -6.64674
lfemur -17.3569 -1.15312 -34.9944
ltibia 47.1839
lfoot -26.5567 -13.881
ltoes 6.77323
21
root -1.64139 15.657 32.1288 -159.042 4.47288 -188.328
lowerback 13.869 -5.06506 -4.00067
upperback -1.647 -7.20512 2.37655
thorax -8.72785 -3.21364 6.28854
lowerneck -16.4091 2.79256 1.18488
upperneck -0.132141 4.01278 -3.07827
head 2.93115 2.02907 -0.912107
rclavicle -3.39922e-014 2.70347e-014
rhumerus -70.1994 -11.4811 -54.8196
rradius 57.9357
rwrist -8.51169
rhand -29.0163 -4.10927
rfingers 7.12502
rthumb -2.36744 -34.0759
lclavicle -3.39922e-014 2.70347e-014
lhumerus -28.7566 -11.7373 92.7243
lradius 115.118
lwrist 10.6493
lhand -29.2134 -0.739468
lfingers 7.12502
lthumb -2.55776 29.2249
rfemur -70.2627 -9.62706 10.9076
rtibia 91.9371
rfoot -12.1517 -7.62974
rtoes -9.9631
lfemur -13.7966 -1.06256 -35.0493
ltibia 44.2565
lfoot -23.268 -14.7906
ltoes 4.65681
22
root -1.62649 15.7068 31.5324 -159.379 4.77807 -188.432
lowerback 13.3249 -5.27582 -4.18386
upperback -1.75231 -7.49043 2.56631
thorax -8.44761 -3.35605 6.5847
lowerneck -16.3742 3.14912 1.25833
upperneck 0.265909 4.48209 -3.57654
head 3.09346 2.22587 -1.05245
rclavicle -3.75703e-014 -2.78299e-014
rhumerus -71.3438 -10.1681 -53.2487
rradius 59.4222
rwrist -9.25254
rhand -28.8838 -3.84955
rfingers 7.12502
rthumb -2.23948 -33.8175
lclavicle -3.75703e-014 -2.78299e-014
lhumerus -28.3372 -12.2171 91.8586
lradius 117.973
lwrist 10.5118
lhand -29.2183 -1.5932
lfingers 7.12502
lthumb -2.56254 28.3712
rfemur -71.8346 -8.93903 11.0253
rtibia 88.4433
rfoot -12.6418 -7.33864
rtoes -13.4484
lfemur -10.3176 -1.05569 -35.0969
ltibia 41.3373
lfoot -18.9127 -15.6785
ltoes 2.42414
23
root -1.61068 15.7432 30.9333 -159.765 5.12505 -188.528
lowerback 12.8111 -5.45838 -4.33645
upperback -1.84501 -7.73259 2.74196
thorax -8.17913 -3.47915 6.83878
lowerneck -16.3506 3.48935 1.35875
upperneck 0.690187 4.93194 -4.08873
head 3.27229 2.41151 -1.20363
rclavicle -6.48038e-014 5.40694e-014
rhumerus -72.2726 -8.94637 -51.7534
rradius 60.841
rwrist -9.37265
rhand -28.7298 -3.541
rfingers 7.12502
rthumb -2.09075 -33.5105
lclavicle -6.48038e-014 5.40694e-014
lhumerus -28.0987 -12.7003 90.984
lradius 120.602
lwrist 9.57966
lhand -29.1372 -2.57227
lfingers 7.12502
lthumb -2.48422 27.393
rfemur -73.0556 -8.29074 11.1718
rtibia 84.676
rfoot -12.9735 -6.90258
rtoes -16.8434
lfemur -6.99161 -1.16882 -35.1821
ltibia 38.5417
lfoot -13.2831 -16.359
ltoes 0.413745
24
root -1.59734 15.7971 30.3248 -160.208 5.51713 -188.63
lowerback 12.34 -5.60616 -4.46501
upperback -1.92421 -7.9264 2.88669
thorax -7.93215 -3.57965 7.03894
lowerneck -16.3455 3.80391 1.48143
upperneck 1.15959 5.34885 -4.58046
head 3.47426 2.5799 -1.35451
rclavicle 1.39149e-014 7.95139e-015
rhumerus -72.9872 -7.85928 -50.3446
rradius 62.1584
rwrist -9.06047
rhand -28.5603 -3.19739
rfingers 7.12502
rthumb -1.92703 -33.1684
lclavicle 1.39149e-014 7.95139e-015
lhumerus -28.0322 -13.1664 90.1387
lradius 122.934
lwrist 7.82699
lhand -29.0586 -3.57982
lfingers 7.12502
lthumb -2.40835 26.3863
rfemur -73.7298 -7.72918 11.3612
rtibia 80.5811
rfoot -13.1324 -6.33349
rtoes -19.9491
lfemur -3.82846 -1.42544 -35.3488
ltibia 35.8762
lfoot -6.50817 -16.5772
ltoes -1.66069
25
root -1.58503 15.848 29.7143 -160.707 5.95581 -188.753
lowerback 11.9221 -5.71213 -4.58129
upperback -1.98722 -8.06661 2.98264
thorax -7.71278 -3.65432 7.17487
lowerneck -16.3822 4.08536 1.6238
upperneck 1.69642 5.72128 -5.0168
head 3.71 2.72586 -1.49363
rclavicle 3.53837e-014 -7.95139e-015
rhumerus -73.4944 -6.9351 -49.0655
rradius 63.3736
rwrist -8.5978
rhand -28.3996 -2.89341
rfingers 7.12502
rthumb -1.77185 -32.8658
lclavicle 3.53837e-014 -7.95139e-015
lhumerus -28.122 -13.6044 89.3482
lradius 124.903
lwrist 5.37584
lhand -29.0765 -4.5551
lfingers 7.12502
lthumb -2.42558 25.4109
rfemur -74.0435 -7.26913 11.6215
rtibia 76.3763
rfoot -12.9929 -5.66158
rtoes -22.5953
lfemur -0.920473 -1.83913 -35.6433
ltibia 33.5155
lfoot 0.963024 -16.3061
ltoes -3.25888
26
root -1.57377 15.8942 29.1042 -161.253 6.43046 -188.928
lowerback 11.561 -5.77843 -4.71253
upperback -2.04092 -8.16174 3.02065
thorax -7.52805 -3.70569 7.25593
lowerneck -16.5915 4.31454 1.6727
upperneck 2.70971 6.05299 -5.43562
head 3.67461 2.83047 -1.45709
rclavicle 1.63003e-014 2.70347e-014
rhumerus -73.8006 -6.16701 -47.9575
rradius 64.5058
rwrist -8.27664
rhand -28.2713 -2.66445
rfingers 7.12502
rthumb -1.64796 -32.6378
lclavicle 1.63003e-014 2.70347e-014
lhumerus -28.3558 -14.0026 88.6258
lradius 126.451
lwrist 2.5088
lhand -29.2617 -5.36634
lfingers 7.12502
lthumb -2.60447 24.5975
rfemur -74.0583 -6.94557 11.9638
rtibia 72.1568
rfoot -12.4719 -4.93332
rtoes -24.7445
lfemur 1.69237 -2.42342 -36.1116
ltibia 31.5529
lfoot 8.40054 -15.7519
ltoes -3.70751
27
root -1.56344 15.9338 28.497 -161.83 6.92371 -189.178
lowerback 11.2734 -5.80386 -4.88853
upperback -2.09744 -8.21558 3.00058
thorax -7.39659 -3.73295 7.30365
lowerneck -16.7153 4.51613 1.82859
upperneck 3.41387 6.32192 -5.7368
head 3.93699 2.9221 -1.5412
rclavicle -8.46823e-014 1.51076e-014
rhumerus -73.9297 -5.54742 -47.0371
rradius 65.5784
rwrist -8.26325
rhand -28.1805 -2.44722
rfingers 7.12502
rthumb -1.56025 -32.4213
lclavicle -8.46823e-014 1.51076e-014
lhumerus -28.7177 -14.3647 87.9944
lradius 127.53
lwrist -0.358047
lhand -29.5996 -5.94563
lfingers 7.12502
lthumb -2.93076 24.014
rfemur -73.8477 -6.78991 12.3989
rtibia 68.0719
rfoot -11.5892 -4.20834
rtoes -26.1217
lfemur 3.88534 -3.14451 -36.7738
ltibia 30.291
lfoot 14.9095 -15.1377
ltoes -2.70154
28
root -1.55378 15.9657 27.8947 -162.432 7.39965 -189.513
lowerback 11.0694 -5.79929 -5.1245
upperback -2.16077 -8.24413 2.93513
thorax -7.32235 -3.74253 7.34462
lowerneck -16.8744 4.67387 1.96812
upperneck 4.15853 6.5363 -5.9651
head 4.21396 2.98838 -1.60346
rclavicle -1.07344e-014 -5.64548e-014
rhumerus -73.8918 -5.04819 -46.3184
rradius 66.6233
rwrist -8.56315
rhand -28.1497 -2.23474
rfingers 7.12502
rthumb -1.53053 -32.209
lclavicle -1.07344e-014 -5.64548e-014
lhumerus -29.1973 -14.694 87.4822
lradius 128.109
lwrist -2.83443
lhand -30.0025 -6.23254
lfingers 7.12502
lthumb -3.31988 23.7214
rfemur -73.4775 -6.83453 12.9446
rtibia 64.2434
rfoot -10.3656 -3.52252
rtoes -27.0351
lfemur 5.57919 -3.91489 -37.5982
ltibia 29.966
lfoot 19.7403 -14.633
ltoes -0.530144
